<svg width="100" height="100" viewBox="0 0 100 100" fill="none" xmlns="http://www.w3.org/2000/svg">
<rect width="100" height="100" fill="#100F10"/>
<path d="M16.8667 58L11 59.4667V41.8667C11.7333 43.1378 12.76 43.9444 14.08 44.2867C15.4489 44.6289 16.8667 44.8 18.3333 44.8C19.9956 44.8 21.4622 45.24 22.7333 46.12C24.0044 45.24 25.4711 44.8 27.1333 44.8C29.1378 44.8 30.8489 45.4356 32.2667 46.7067C33.7333 47.9778 34.4667 49.5422 34.4667 51.4V58L28.6 59.4667V51.4C28.6 51.0089 28.4533 50.6667 28.16 50.3733C27.8667 50.08 27.5244 49.9333 27.1333 49.9333C26.7422 49.9333 26.4 50.08 26.1067 50.3733C25.8133 50.6667 25.6667 51.0089 25.6667 51.4V58L19.8 59.4667V51.4C19.8 51.0089 19.6533 50.6667 19.36 50.3733C19.0667 50.08 18.7244 49.9333 18.3333 49.9333C17.9422 49.9333 17.6 50.08 17.3067 50.3733C17.0133 50.6667 16.8667 51.0089 16.8667 51.4V58Z" fill="white"/>
<path d="M44.7591 58C42.7547 58 41.0191 57.4622 39.5524 56.3867C38.1347 55.2622 37.4258 53.6 37.4258 51.4C37.4258 49.5422 38.1347 47.9778 39.5524 46.7067C41.0191 45.4356 42.7547 44.8 44.7591 44.8C46.2258 44.8 47.6191 44.6289 48.9391 44.2867C50.308 43.9444 51.3591 43.1378 52.0924 41.8667V58C49.64 58 47.1965 58 44.7591 58ZM44.7591 52.8667C45.1502 52.8667 45.4924 52.72 45.7858 52.4267C46.0791 52.1333 46.2258 51.7911 46.2258 51.4C46.2258 51.0089 46.0791 50.6667 45.7858 50.3733C45.4924 50.08 45.1502 49.9333 44.7591 49.9333C44.368 49.9333 44.0258 50.08 43.7324 50.3733C43.4391 50.6667 43.2924 51.0089 43.2924 51.4C43.2924 51.7911 43.4391 52.1333 43.7324 52.4267C44.0258 52.72 44.368 52.8667 44.7591 52.8667Z" fill="white"/>
<path d="M60.9096 58L55.043 59.4667V41.8667C55.7763 43.1378 56.803 43.9444 58.123 44.2867C59.4919 44.6289 60.9096 44.8 62.3763 44.8C64.3807 44.8 66.0919 45.4356 67.5096 46.7067C68.9763 47.9778 69.7096 49.5422 69.7096 51.4V58L63.843 59.4667V51.4C63.843 51.0089 63.6963 50.6667 63.403 50.3733C63.1096 50.08 62.7674 49.9333 62.3763 49.9333C61.9852 49.9333 61.643 50.08 61.3496 50.3733C61.0563 50.6667 60.9096 51.0089 60.9096 51.4V58Z" fill="white"/>
<path d="M72 50.5C72 48.45 72.5333 46.675 73.6 45.175C74.7152 43.725 76.3636 43 78.5455 43C80.3879 43 81.9394 43.725 83.2 45.175C84.4606 46.675 85.0909 48.45 85.0909 50.5C85.0909 52 85.2606 53.425 85.6 54.775C85.9394 56.175 86.7394 57.25 88 58L72 58C72.0303 55.4972 72 52.9987 72 50.5ZM77.0909 50.5C77.0909 50.9 77.2364 51.25 77.5273 51.55C77.8182 51.85 78.1576 52 78.5455 52C78.9333 52 79.2727 51.85 79.5636 51.55C79.8545 51.25 80 50.9 80 50.5C80 50.1 79.8545 49.75 79.5636 49.45C79.2727 49.15 78.9333 49 78.5455 49C78.1576 49 77.8182 49.15 77.5273 49.45C77.2364 49.75 77.0909 50.1 77.0909 50.5Z" fill="white"/>
</svg>
