<svg width="245" height="89" viewBox="0 0 245 89" fill="none" xmlns="http://www.w3.org/2000/svg">
<path d="M28.3125 68.7188C27.7812 68.6562 27.125 68.5938 26.3438 68.5312C25.6875 68.4688 24.875 68.4219 23.9062 68.3906C22.9688 68.3594 21.9062 68.3438 20.7188 68.3438C18.4062 68.3438 15.6562 68.4531 12.4688 68.6719C9.28125 68.8906 5.73438 69.3125 1.82812 69.9375C3.48438 62.9688 4.625 56.1406 5.25 49.4531C5.90625 42.7656 6.23438 36.3281 6.23438 30.1406C6.23438 24.5156 6.01562 19.2344 5.57812 14.2969C5.14062 9.32812 4.5625 4.75 3.84375 0.5625C6.96875 1.125 9.76562 1.5 12.2344 1.6875C14.7344 1.875 16.8906 1.96875 18.7031 1.96875C19.9531 1.96875 21.0469 1.9375 21.9844 1.875C22.9531 1.8125 23.75 1.75 24.375 1.6875C25.125 1.59375 25.7656 1.5 26.2969 1.40625C27.3594 7.53125 28.6875 13.5938 30.2812 19.5938C31.875 25.5625 33.8438 31.5625 36.1875 37.5938C38.1562 31.5 39.7188 25.4062 40.875 19.3125C42.0312 13.1875 42.8125 6.9375 43.2188 0.5625L43.5938 1.40625L43.2188 0.5625C46.3438 1.125 49.1875 1.5 51.75 1.6875C54.3125 1.875 56.5781 1.96875 58.5469 1.96875C59.8594 1.96875 61.0156 1.9375 62.0156 1.875C63.0156 1.8125 63.875 1.75 64.5938 1.6875C65.4062 1.59375 66.1094 1.5 66.7031 1.40625C66.0469 4.53125 65.5469 8.23438 65.2031 12.5156C64.8594 16.7656 64.6875 21.3281 64.6875 26.2031C64.6875 29.6719 64.7812 33.25 64.9688 36.9375C65.1562 40.5938 65.4375 44.25 65.8125 47.9062C66.2188 51.5312 66.7344 55.1094 67.3594 58.6406C67.9844 62.1719 68.7344 65.5312 69.6094 68.7188C68.9844 68.6562 68.2656 68.5938 67.4531 68.5312C66.7344 68.4688 65.8906 68.4219 64.9219 68.3906C63.9531 68.3594 62.8281 68.3438 61.5469 68.3438C59.1094 68.3438 56.2344 68.4531 52.9219 68.6719C49.6406 68.8906 46.0469 69.3125 42.1406 69.9375C42.9219 68.375 43.5625 66.375 44.0625 63.9375C44.5938 61.5 45.0156 58.9062 45.3281 56.1562C45.6719 53.4062 45.9219 50.6719 46.0781 47.9531C46.2656 45.2031 46.3906 42.75 46.4531 40.5938C45.5469 42.5312 44.6719 44.5 43.8281 46.5C42.9844 48.5 42.1094 50.6406 41.2031 52.9219C40.3281 55.1719 39.4062 57.6094 38.4375 60.2344C37.4688 62.8594 36.4062 65.7812 35.25 69C34.0625 65.7812 32.9844 62.8594 32.0156 60.2344C31.0469 57.6094 30.125 55.1719 29.25 52.9219C28.4062 50.6719 27.5625 48.5469 26.7188 46.5469C25.9062 44.5156 25.0625 42.5 24.1875 40.5C24.4688 45.4375 24.9375 50.3125 25.5938 55.125C26.25 59.9062 27.1562 64.4375 28.3125 68.7188ZM128.016 69.5625C126.078 69.3125 124.203 69.1406 122.391 69.0469C120.609 68.9531 118.797 68.9062 116.953 68.9062C111.984 68.9062 106.891 69.3906 101.672 70.3594C101.859 69.6094 102.062 68.9531 102.281 68.3906C102.531 67.7969 102.75 67.1562 102.938 66.4688C103.125 65.75 103.281 64.9219 103.406 63.9844C103.531 63.0469 103.594 61.8438 103.594 60.375C103.594 58.875 103.484 57.4531 103.266 56.1094C103.047 54.7344 102.719 53.5312 102.281 52.5C101.844 51.4375 101.297 50.5938 100.641 49.9688C100.016 49.3438 99.2812 49.0312 98.4375 49.0312C97.5 49.0312 96.7031 49.3125 96.0469 49.875C95.4219 50.4375 94.9062 51.2031 94.5 52.1719C94.125 53.1406 93.8438 54.25 93.6562 55.5C93.5 56.75 93.4219 58.0781 93.4219 59.4844C93.4219 60.8906 93.5 62.1094 93.6562 63.1406C93.8438 64.1406 94.0469 65.0156 94.2656 65.7656C94.5156 66.5156 94.75 67.1875 94.9688 67.7812C95.1875 68.3438 95.3438 68.9062 95.4375 69.4688C93.2812 69.2188 91.1562 69.0312 89.0625 68.9062C87 68.7812 84.9375 68.7188 82.875 68.7188C80.8125 68.7188 78.7344 68.7812 76.6406 68.9062C74.5781 69.0312 72.4375 69.2188 70.2188 69.4688C72.1562 63.8438 73.8438 58.2656 75.2812 52.7344C76.75 47.2031 78 41.6406 79.0312 36.0469C80.0625 30.4531 80.8906 24.7969 81.5156 19.0781C82.1719 13.3594 82.6562 7.5 82.9688 1.5C85.2812 1.8125 87.8125 2.04688 90.5625 2.20312C93.3438 2.32813 96.1875 2.39062 99.0938 2.39062C101.562 2.39062 103.953 2.32813 106.266 2.20312C108.609 2.07812 110.766 1.8125 112.734 1.40625C112.953 7.375 113.516 13.25 114.422 19.0312C115.328 24.8125 116.453 30.5469 117.797 36.2344C119.172 41.8906 120.734 47.5 122.484 53.0625C124.234 58.5938 126.078 64.0938 128.016 69.5625ZM101.766 33.1875C101.703 32.5938 101.516 31.7188 101.203 30.5625C100.922 29.5625 100.5 28.25 99.9375 26.625C99.375 24.9688 98.5469 22.8438 97.4531 20.25C97.2031 21.875 96.9219 23.3281 96.6094 24.6094C96.2969 25.8594 96 27 95.7188 28.0312C95.4375 29.0312 95.1875 29.9531 94.9688 30.7969C94.7812 31.6406 94.6875 32.4375 94.6875 33.1875C94.6875 34.75 95.0469 35.9688 95.7656 36.8438C96.5156 37.6875 97.3438 38.1094 98.25 38.1094C99.2188 38.1094 100.031 37.6406 100.688 36.7031C101.344 35.7656 101.703 34.5938 101.766 33.1875ZM154.875 68.7188C154.281 68.6562 153.578 68.5938 152.766 68.5312C152.078 68.4688 151.25 68.4219 150.281 68.3906C149.312 68.3594 148.203 68.3438 146.953 68.3438C144.516 68.3438 141.656 68.4531 138.375 68.6719C135.125 68.8906 131.547 69.3125 127.641 69.9375C128.328 68.5312 128.922 66.75 129.422 64.5938C129.922 62.4375 130.328 60.1406 130.641 57.7031C130.984 55.2344 131.25 52.7344 131.438 50.2031C131.625 47.6719 131.766 45.3125 131.859 43.125C131.953 40.9375 132 39.0469 132 37.4531C132.031 35.8594 132.047 34.7656 132.047 34.1719C132.047 34.0469 132.031 33.5625 132 32.7188C132 31.875 131.984 30.7812 131.953 29.4375C131.922 28.0938 131.875 26.5625 131.812 24.8438C131.75 23.0938 131.656 21.2812 131.531 19.4062C131.438 17.5312 131.297 15.6406 131.109 13.7344C130.953 11.8281 130.75 10.0312 130.5 8.34375C130.281 6.65625 130.016 5.14062 129.703 3.79688C129.422 2.42188 129.078 1.34375 128.672 0.5625C131.828 1.125 134.703 1.5 137.297 1.6875C139.891 1.875 142.203 1.96875 144.234 1.96875C145.609 1.96875 146.828 1.9375 147.891 1.875C148.984 1.8125 149.891 1.75 150.609 1.6875C151.453 1.59375 152.203 1.5 152.859 1.40625C154.203 8.03125 155.734 14.1719 157.453 19.8281C159.172 25.4844 161.109 30.7344 163.266 35.5781V33.6562C163.172 28.5625 163 23.8125 162.75 19.4062C162.625 17.5312 162.484 15.6406 162.328 13.7344C162.172 11.8281 161.969 10.0312 161.719 8.34375C161.5 6.65625 161.234 5.14062 160.922 3.79688C160.641 2.42188 160.297 1.34375 159.891 0.5625C163.016 1.125 165.891 1.5 168.516 1.6875C171.172 1.875 173.516 1.96875 175.547 1.96875C176.922 1.96875 178.141 1.9375 179.203 1.875C180.297 1.8125 181.203 1.75 181.922 1.6875C182.766 1.59375 183.516 1.5 184.172 1.40625C183.797 3.15625 183.469 5.10938 183.188 7.26562C182.906 9.42188 182.656 11.7188 182.438 14.1562C182.219 16.5938 182.047 19.1562 181.922 21.8438C181.828 24.5312 181.781 27.2969 181.781 30.1406C181.781 33.3594 181.859 36.6406 182.016 39.9844C182.172 43.2969 182.422 46.6094 182.766 49.9219C183.141 53.2031 183.594 56.4375 184.125 59.625C184.688 62.7812 185.344 65.8125 186.094 68.7188C185.531 68.6562 184.859 68.5938 184.078 68.5312C183.422 68.4688 182.625 68.4219 181.688 68.3906C180.75 68.3594 179.688 68.3438 178.5 68.3438C176.25 68.3438 173.656 68.4531 170.719 68.6719C167.781 68.8906 164.625 69.3125 161.25 69.9375C161.25 66.7188 160.984 63.5781 160.453 60.5156C159.953 57.4219 159.234 54.3906 158.297 51.4219C157.359 48.4219 156.234 45.4844 154.922 42.6094C153.609 39.7344 152.156 36.8906 150.562 34.0781C150.594 37.0156 150.703 39.9844 150.891 42.9844C151.109 45.9844 151.391 48.9531 151.734 51.8906C152.109 54.8281 152.547 57.7188 153.047 60.5625C153.578 63.375 154.188 66.0938 154.875 68.7188ZM245.016 69.5625C243.078 69.3125 241.203 69.1406 239.391 69.0469C237.609 68.9531 235.797 68.9062 233.953 68.9062C228.984 68.9062 223.891 69.3906 218.672 70.3594C218.859 69.6094 219.062 68.9531 219.281 68.3906C219.531 67.7969 219.75 67.1562 219.938 66.4688C220.125 65.75 220.281 64.9219 220.406 63.9844C220.531 63.0469 220.594 61.8438 220.594 60.375C220.594 58.875 220.484 57.4531 220.266 56.1094C220.047 54.7344 219.719 53.5312 219.281 52.5C218.844 51.4375 218.297 50.5938 217.641 49.9688C217.016 49.3438 216.281 49.0312 215.438 49.0312C214.5 49.0312 213.703 49.3125 213.047 49.875C212.422 50.4375 211.906 51.2031 211.5 52.1719C211.125 53.1406 210.844 54.25 210.656 55.5C210.5 56.75 210.422 58.0781 210.422 59.4844C210.422 60.8906 210.5 62.1094 210.656 63.1406C210.844 64.1406 211.047 65.0156 211.266 65.7656C211.516 66.5156 211.75 67.1875 211.969 67.7812C212.188 68.3438 212.344 68.9062 212.438 69.4688C210.281 69.2188 208.156 69.0312 206.062 68.9062C204 68.7812 201.938 68.7188 199.875 68.7188C197.812 68.7188 195.734 68.7812 193.641 68.9062C191.578 69.0312 189.438 69.2188 187.219 69.4688C189.156 63.8438 190.844 58.2656 192.281 52.7344C193.75 47.2031 195 41.6406 196.031 36.0469C197.062 30.4531 197.891 24.7969 198.516 19.0781C199.172 13.3594 199.656 7.5 199.969 1.5C202.281 1.8125 204.812 2.04688 207.562 2.20312C210.344 2.32813 213.188 2.39062 216.094 2.39062C218.562 2.39062 220.953 2.32813 223.266 2.20312C225.609 2.07812 227.766 1.8125 229.734 1.40625C229.953 7.375 230.516 13.25 231.422 19.0312C232.328 24.8125 233.453 30.5469 234.797 36.2344C236.172 41.8906 237.734 47.5 239.484 53.0625C241.234 58.5938 243.078 64.0938 245.016 69.5625ZM218.766 33.1875C218.703 32.5938 218.516 31.7188 218.203 30.5625C217.922 29.5625 217.5 28.25 216.938 26.625C216.375 24.9688 215.547 22.8438 214.453 20.25C214.203 21.875 213.922 23.3281 213.609 24.6094C213.297 25.8594 213 27 212.719 28.0312C212.438 29.0312 212.188 29.9531 211.969 30.7969C211.781 31.6406 211.688 32.4375 211.688 33.1875C211.688 34.75 212.047 35.9688 212.766 36.8438C213.516 37.6875 214.344 38.1094 215.25 38.1094C216.219 38.1094 217.031 37.6406 217.688 36.7031C218.344 35.7656 218.703 34.5938 218.766 33.1875Z" fill="white"/>
<path d="M192.012 61.3954C189.985 63.731 188.256 66.3655 186.732 69.4368C185.441 72.0483 184.616 74.4115 184.226 76.6322C184.038 77.708 184 78.154 184 79.4598C184 80.7103 184.024 81.0368 184.175 82.0253C184.407 83.5241 184.907 84.954 185.596 86.0851C186.092 86.8989 186.893 87.7586 187.544 88.1678C188.506 88.7701 189.324 89 190.522 89C191.755 88.9954 192.587 88.7379 193.566 88.0529C194.45 87.4368 195.347 86.3425 195.932 85.1655C196.48 84.0713 196.802 82.8805 196.942 81.4414C197.113 79.7402 196.905 78.1402 196.305 76.4943C196.014 75.6943 195.843 75.3218 195.278 74.2644C194.789 73.3494 193.806 71.4598 193.34 70.5264C192.929 69.7126 192.502 68.5816 192.32 67.8322C192.056 66.7471 191.93 65.469 191.991 64.5126C192.043 63.7402 192.145 62.8207 192.286 61.9011C192.412 61.0782 192.419 61 192.382 61C192.365 61 192.2 61.1793 192.012 61.3954ZM194.422 75.4644C194.696 75.8598 194.929 76.3793 195.169 77.1195C195.443 77.9747 195.556 78.5954 195.58 79.3448C195.617 80.6046 195.422 81.2621 194.905 81.5931C194.741 81.6943 194.672 81.7126 194.374 81.7126C193.679 81.7126 193.334 81.3586 193.227 80.5356C193.19 80.2414 193.19 80.2368 193.395 79.3908C193.696 78.1402 193.868 77.3264 193.95 76.7655C194.025 76.2322 194.049 75.5471 194.005 75.1885L193.974 74.9678L194.083 75.0506C194.145 75.1011 194.296 75.2851 194.422 75.4644Z" fill="white"/>
<path d="M188.865 67.722C188.691 67.9183 188.522 68.1102 188.347 68.3047C188.138 68.5363 187.896 68.7394 187.725 69.0068C187.669 69.0927 187.589 69.169 187.541 69.2559C187.479 69.3679 187.609 69.0825 187.633 69.0461C187.785 68.8184 187.896 68.5803 188.064 68.3644C188.14 68.2668 188.187 68.1379 188.275 68.0498C188.329 67.9955 188.35 67.9221 188.406 67.8662C188.455 67.8178 188.586 67.7369 188.524 67.6958" stroke="white" stroke-linecap="round"/>
<path d="M222.701 69.2084C222.701 69.2699 222.644 69.3388 222.623 69.3994C222.578 69.5356 222.521 69.6565 222.457 69.785C222.405 69.8894 222.324 69.9767 222.245 70.0622C222.096 70.2232 221.952 70.4029 221.826 70.5834C221.668 70.8116 221.547 71.0417 221.413 71.2832C221.318 71.4555 221.21 71.6277 221.087 71.781C220.927 71.9809 220.825 72.2287 220.683 72.4414C220.569 72.6119 220.472 72.6957 220.284 72.7691C220.225 72.7921 220.104 72.8506 220.04 72.8184C219.957 72.7769 219.921 72.6867 219.829 72.6459C219.754 72.6125 219.664 72.592 219.584 72.5695C219.451 72.5324 219.321 72.5375 219.197 72.4685C219.095 72.4114 219.127 72.1938 219.132 72.0988C219.162 71.4458 219.29 70.8111 219.623 70.2458C219.992 69.6212 220.285 68.8623 221.131 68.8536C221.197 68.8529 221.322 68.8298 221.383 68.8634C221.458 68.9054 221.457 69.1085 221.457 69.1776C221.457 69.5236 221.351 69.8861 221.291 70.2261C221.263 70.39 221.239 70.5731 221.149 70.7165C220.951 71.0291 220.727 71.3238 220.509 71.622C220.392 71.782 220.274 71.9417 220.168 72.1087C220.065 72.2702 220.051 72.0771 220.045 71.9855C220.006 71.4138 220.018 70.8416 220.212 70.3C220.326 69.9822 220.576 69.652 220.938 69.652C221.203 69.652 220.781 70.3303 220.715 70.4269C220.637 70.5406 220.562 70.6552 220.488 70.7781C220.423 70.887 220.423 70.8795 220.306 70.9382" stroke="white" stroke-linecap="round"/>
<path d="M161.683 67.7322C161.683 68.6304 161.683 69.5285 161.683 70.4267C161.683 72.0675 160.804 73.5981 160.773 75.2638C160.752 76.4106 160.709 77.4238 161.145 78.4916C161.426 79.1774 161.7 79.8158 162.506 79.8158C163.024 79.8158 163.622 79.0039 163.872 78.6111C164.217 78.069 164.332 77.2977 164.332 76.6708C164.332 75.9453 164.421 75.1452 164.268 74.4361C164.14 73.8468 164.238 73.0873 164.396 72.5326C164.626 71.7298 165.167 70.9906 166.029 70.7991C167.131 70.5541 168.346 70.6731 169.233 69.8197C169.574 69.4918 170.01 69.2168 170.374 68.9093C170.777 68.568 171.178 68.1895 171.634 67.9161C172.567 67.3564 173.563 66.8412 174.595 66.4908C175.12 66.3124 175.662 66.3282 176.167 66.1597" stroke="white" stroke-linecap="round"/>
<path d="M169.712 68.2288C168.831 68.2288 167.911 69.1491 167.265 69.6772C166.794 70.0629 166.063 69.9345 165.537 70.1738C165.413 70.2301 165.165 70.2979 165.031 70.2979C164.622 70.2979 164.559 70.5188 164.497 69.9669" stroke="white" stroke-width="2" stroke-linecap="round"/>
<path d="M164.415 69.8841C164.235 69.8841 164.056 69.8841 163.877 69.8841C163.72 69.8841 163.649 70.0942 163.486 70.1508C163.039 70.3054 162.942 70.3576 162.925 70.8129C162.881 71.9957 162.32 73.1182 162.175 74.2752C162.084 75.0092 161.932 75.7068 161.932 76.4593C161.932 76.797 161.898 77.1317 162.014 77.4524C162.071 77.6085 162.095 77.7623 162.162 77.9122C162.25 78.1102 162.315 78.1584 162.097 77.995" stroke="white" stroke-width="2" stroke-linecap="round"/>
<path d="M162.18 78.8226C162.743 78.76 162.594 77.748 162.594 77.3743C162.594 76.9191 162.594 76.4639 162.594 76.0087C162.594 75.8641 162.545 75.6145 162.598 75.4799C162.705 75.2127 162.677 76.0519 162.677 76.3397C162.677 76.574 162.425 77.403 162.64 77.618C162.945 77.9227 163.09 77.3605 163.09 77.1674C163.09 76.5457 162.925 75.9701 162.925 75.3649C162.925 74.3015 162.178 72.8655 163.215 72.036C163.411 71.8788 163.51 71.4633 163.628 71.2497C163.813 70.9171 163.918 70.4317 163.918 71.144C163.918 71.8348 163.719 72.7087 163.38 73.3188C163.213 73.6194 163.492 74.2494 163.09 73.5257" stroke="white" stroke-width="2" stroke-linecap="round"/>
<path d="M192.013 68.4646C191.773 68.4646 191.591 68.5514 191.388 68.6787C191.203 68.7953 190.998 68.8868 190.825 69.0231C190.667 69.148 190.524 69.2993 190.39 69.4486C190.055 69.8204 189.906 70.3488 189.816 70.8297C189.764 71.1033 189.75 71.9408 189.75 71.6624" stroke="white" stroke-linecap="round"/>
<path d="M64.9658 63.9071C67.2247 65.8455 69.1517 68.032 70.8497 70.5809C72.2883 72.7483 73.2079 74.7096 73.6429 76.5526C73.8528 77.4455 73.8947 77.8157 73.8947 78.8993C73.8947 79.9372 73.868 80.2082 73.7001 81.0286C73.4407 82.2725 72.8836 83.4592 72.1166 84.3979C71.5633 85.0733 70.6704 85.7868 69.9454 86.1265C68.8732 86.6263 67.9612 86.8171 66.6257 86.8171C65.252 86.8133 64.3247 86.5996 63.2334 86.0311C62.2489 85.5197 61.2492 84.6116 60.5967 83.6347C59.9862 82.7266 59.6275 81.7383 59.4711 80.5439C59.2803 79.1321 59.513 77.8042 60.1808 76.4382C60.5051 75.7742 60.6959 75.4651 61.3255 74.5875C61.8712 73.8282 62.9663 72.2599 63.4853 71.4853C63.9432 70.8099 64.4201 69.8712 64.6224 69.2492C64.9162 68.3487 65.0574 67.2879 64.9887 66.4942C64.9314 65.8532 64.817 65.09 64.6605 64.3268C64.5193 63.6438 64.5117 63.5789 64.5537 63.5789C64.5728 63.5789 64.7559 63.7278 64.9658 63.9071ZM62.2795 75.5834C61.9742 75.9116 61.7147 76.3428 61.4476 76.9571C61.1424 77.6668 61.0164 78.182 60.9897 78.8039C60.9478 79.8495 61.1653 80.3951 61.7414 80.6699C61.9246 80.7538 62.0009 80.7691 62.3329 80.7691C63.1075 80.7691 63.4929 80.4753 63.6112 79.7922C63.6532 79.548 63.6532 79.5442 63.4242 78.8421C63.0884 77.8042 62.8976 77.1288 62.8061 76.6633C62.7221 76.2207 62.6954 75.6521 62.745 75.3545L62.7793 75.1713L62.6572 75.24C62.5886 75.282 62.4207 75.4346 62.2795 75.5834Z" fill="white"/>
<path d="M62.5 74C67.9868 69.4229 65.8516 63.1169 59 65.4987" stroke="white"/>
<path d="M64.4213 66.1052C64.4349 66.2678 64.5841 66.4413 64.6723 66.5668C64.7883 66.7319 64.9113 66.8919 65.0332 67.0525C65.0712 67.1026 65.1202 67.1554 65.1486 67.2122C65.1717 67.2584 65.0722 67.1429 65.0359 67.1062C64.8723 66.9407 64.7169 66.7672 64.5649 66.5909C64.3942 66.393 64.2298 66.1897 64.0631 65.9884C64.0089 65.9231 63.9435 65.8567 63.9 65.7831C63.8873 65.7616 63.915 65.7664 63.9282 65.769C63.9881 65.781 64.0382 65.8358 64.0792 65.8771C64.3661 66.1661 64.6194 66.4988 64.8628 66.8244C64.9444 66.9335 65.0229 67.044 65.0889 67.1632C65.0989 67.1813 65.1214 67.242 65.146 67.2498C65.1815 67.261 65.1501 66.7631 65.146 66.7318C65.1274 66.5927 65.0979 66.4524 65.0862 66.3125C65.0801 66.239 65.0626 66.3087 65.0547 66.3413C65.049 66.365 65.0305 66.4793 65.0057 66.4903C64.9629 66.5094 64.8638 66.4351 64.8266 66.4198C64.7943 66.4066 64.6946 66.3628 64.726 66.4339C64.7502 66.4889 64.8108 66.5614 64.8682 66.5856C64.8879 66.5939 64.8792 66.5322 64.8789 66.5292C64.8706 66.4314 64.8331 66.3387 64.793 66.2501C64.7348 66.1214 64.671 65.9838 64.5783 65.8757" stroke="white" stroke-linecap="round"/>
<path d="M64.2972 66.3082C64.2837 66.3066 64.2695 66.2927 64.2586 66.2857C64.2117 66.2557 64.1644 66.2261 64.1172 66.1964C63.9824 66.1116 63.8401 66.0582 63.6861 66.0178C63.5664 65.9863 63.4429 65.9709 63.3209 65.9512C63.2009 65.9318 63.0815 65.9124 62.9605 65.8998C62.8907 65.8926 62.8202 65.8907 62.7505 65.8829C62.7352 65.8812 62.7195 65.883 62.7143 65.8674" stroke="white" stroke-linecap="round"/>
<path d="M64.3841 66.2399C64.3066 66.2399 64.2223 66.2063 64.1517 66.1747C64.1081 66.1551 64.0548 66.138 64.0144 66.1123C63.986 66.0942 63.9392 66.088 63.9062 66.0843C63.8669 66.08 63.8273 66.0743 63.7879 66.0692C63.7333 66.062 63.678 66.0693 63.6234 66.0629C63.5782 66.0577 63.5322 66.0598 63.4868 66.0598C63.4539 66.0598 63.4818 66.0598 63.4992 66.0598C63.5834 66.0598 63.6736 66.0802 63.7558 66.0985C63.8122 66.111 63.8752 66.1278 63.9296 66.1467C64.0086 66.1742 64.0875 66.1939 64.1655 66.2261C64.2371 66.2556 64.3029 66.2916 64.3624 66.3419C64.3728 66.3508 64.4145 66.3696 64.4145 66.3854C64.4145 66.3974 64.3402 66.3616 64.3345 66.3575C64.272 66.312 64.1924 66.2902 64.1234 66.2557C64.0674 66.2277 64.0056 66.2047 63.9465 66.1867C63.9171 66.1778 63.8901 66.1613 63.8627 66.1481C63.8038 66.1198 63.7262 66.1108 63.6627 66.0985C63.534 66.0735 63.403 66.0573 63.273 66.0426C63.0948 66.0225 62.9121 66.0164 62.7329 66.0164C62.5628 66.0164 62.3949 66.0103 62.2253 65.9978C62.1527 65.9924 62.0795 65.9887 62.0073 65.9791C61.9753 65.9749 61.9603 65.97 61.9384 65.9481" stroke="white" stroke-linecap="round"/>
<path d="M64.44 66.6123C64.44 66.5655 64.3834 66.5246 64.3534 66.4947C64.319 66.4603 64.2836 66.4271 64.2489 66.3937C64.1128 66.2624 63.9178 66.1847 63.7472 66.1126C63.5536 66.0308 63.3588 65.9555 63.1564 65.8984C63.0946 65.881 63.0336 65.8608 62.9716 65.844C62.9505 65.8382 62.9346 65.8332 62.9192 65.8177" stroke="white" stroke-linecap="round"/>
<path d="M64.6945 66.9289C64.6925 66.8898 64.6682 66.8582 64.6435 66.8296C64.5923 66.7702 64.535 66.7215 64.4776 66.6685C64.3464 66.5474 64.1936 66.4489 64.0413 66.3564C63.7746 66.1944 63.4823 66.0834 63.1819 66.0012C62.9626 65.9412 62.7368 65.9 62.5098 65.8836C62.4806 65.8815 62.342 65.8987 62.3294 65.8612" stroke="white" stroke-linecap="round"/>
<path d="M66.6405 65.8051C66.716 65.89 66.7892 65.9731 66.8649 66.0573C66.9551 66.1575 67.0597 66.2454 67.1341 66.3612C67.158 66.3983 67.1927 66.4314 67.2136 66.469C67.2405 66.5175 67.1844 66.3939 67.1739 66.3782C67.1082 66.2796 67.0599 66.1766 66.9872 66.0831C66.9544 66.0409 66.934 65.9851 66.8958 65.9469C66.8723 65.9234 66.8632 65.8916 66.8391 65.8675C66.8181 65.8465 66.7613 65.8115 66.788 65.7937" stroke="white" stroke-linecap="round"/>
<path d="M68.8066 68.5805C68.8066 68.6652 68.8715 68.7435 68.9271 68.8022C68.9642 68.8414 68.9928 68.8774 69.0428 68.9024C69.0599 68.9109 69.0735 68.9238 69.0873 68.9361C69.0958 68.9438 69.1068 68.9433 69.1127 68.9541C69.1186 68.9647 69.1228 68.9757 69.1296 68.9865C69.1421 69.0064 69.1589 69.0223 69.1706 69.043C69.1796 69.0591 69.1989 69.0701 69.2056 69.0877C69.2125 69.1054 69.2256 69.1208 69.2356 69.1372C69.2428 69.1491 69.2605 69.1907 69.2501 69.1541" stroke="white" stroke-linecap="round"/>
<path d="M68.9561 68.4455C68.9927 68.4455 69.0238 68.5012 69.0428 68.5275C69.0725 68.5685 69.1117 68.6026 69.139 68.6453C69.152 68.6656 69.1588 68.694 69.1778 68.7096C69.2032 68.7305 69.2255 68.7562 69.249 68.7792C69.3026 68.8316 69.3556 68.8851 69.4092 68.9372C69.4315 68.9589 69.4502 68.983 69.4718 69.0047C69.4865 69.0194 69.5066 69.0359 69.5152 69.0553C69.5179 69.0614 69.5386 69.0827 69.5249 69.0673C69.5064 69.0467 69.4977 69.0146 69.4852 68.9902C69.435 68.8916 69.3886 68.7935 69.3031 68.7203" stroke="white" stroke-width="0.5" stroke-linecap="round"/>
<path d="M69.4333 69.6602C69.4333 69.5747 69.4333 69.4892 69.4239 69.4048C69.42 69.3693 69.3945 69.3424 69.3896 69.3084C69.3847 69.2738 69.3706 69.2398 69.3706 69.2045C69.3706 69.1976 69.369 69.137 69.361 69.137C69.3572 69.137 69.3916 69.1943 69.3944 69.1975C69.4171 69.223 69.4402 69.2478 69.4643 69.2719C69.477 69.2846 69.4858 69.3076 69.5008 69.3169C69.5074 69.3211 69.5223 69.3479 69.5198 69.3274C69.5158 69.2953 69.5008 69.2647 69.5008 69.2323C69.5008 69.2078 69.4981 69.2216 69.5128 69.2216C69.5267 69.2216 69.5358 69.2264 69.549 69.2264C69.5581 69.2264 69.5827 69.2215 69.5827 69.2337C69.5827 69.2623 69.5606 69.2497 69.549 69.2361" stroke="white" stroke-width="0.5" stroke-linecap="round"/>
<path d="M69.5056 69.3614C69.5167 69.3514 69.5317 69.3408 69.5465 69.3375C69.5549 69.3357 69.5628 69.34 69.5693 69.3335C69.5809 69.322 69.5647 69.2971 69.5741 69.2853C69.5844 69.2724 69.5889 69.2603 69.6009 69.2494C69.6046 69.2461 69.6094 69.2377 69.6143 69.2363C69.6194 69.2349 69.6308 69.2529 69.6068 69.2409" stroke="white" stroke-width="0.5" stroke-linecap="round"/>
<path d="M69.1094 68.4648C69.1094 68.5315 69.1538 68.5943 69.1892 68.6482C69.2249 68.7024 69.2623 68.748 69.3086 68.793C69.3238 68.8078 69.343 68.8191 69.3555 68.8368C69.3637 68.8485 69.3812 68.8568 69.3867 68.8691C69.3968 68.8918 69.4274 68.9196 69.4453 68.9375C69.4492 68.9413 69.4643 68.9676 69.4718 68.9601C69.4785 68.9534 69.4549 68.9309 69.4533 68.9238C69.4483 68.9012 69.4322 68.8784 69.4297 68.8555C69.4286 68.8458 69.4205 68.8314 69.4141 68.8242C69.4079 68.8173 69.4065 68.8078 69.4004 68.801C69.3966 68.7968 69.3979 68.7837 69.3926 68.7858C69.3792 68.7912 69.4287 68.8845 69.4336 68.8945C69.455 68.9385 69.4843 68.9823 69.5148 69.0204C69.5266 69.0352 69.5303 69.0576 69.541 69.0742C69.5546 69.0953 69.566 69.1181 69.5773 69.1406C69.596 69.1782 69.6228 69.2088 69.6415 69.2461C69.6476 69.2584 69.6527 69.2729 69.6602 69.2843C69.6669 69.2946 69.6786 69.3032 69.6836 69.3145C69.6904 69.3298 69.6951 69.3553 69.7109 69.3633" stroke="white" stroke-width="0.5" stroke-linecap="round"/>
<path d="M103.284 68.7637C103.284 68.8869 103.104 68.9695 103.027 69.046C102.898 69.175 102.676 69.2044 102.565 69.3483C102.519 69.408 102.453 69.4449 102.406 69.508C102.312 69.6324 102.208 69.7491 102.106 69.866C102.017 69.9676 101.96 70.1025 101.872 70.2011C101.828 70.2502 101.799 70.3225 101.77 70.3807C101.706 70.5054 101.608 70.6147 101.551 70.7415C101.488 70.883 101.398 71.0088 101.335 71.1507C101.24 71.3638 101.183 71.5881 101.122 71.8124C101.01 72.2269 101.017 72.6479 100.808 73.0344C100.774 73.0988 100.81 73.0921 100.858 73.1029C100.918 73.1161 100.897 73.2177 100.897 73.2611C100.897 73.856 101.948 74.9836 102.52 74.3905C102.73 74.1718 102.677 73.6433 102.54 73.398C102.401 73.15 102.157 72.9701 102.046 72.7107C101.956 72.5 101.945 72.2908 101.949 72.0633C101.959 71.53 102.423 71.0507 102.745 70.6673C103.234 70.0845 103.779 69.552 104.316 69.0147C104.477 68.8542 104.636 68.6937 104.807 68.5441C104.848 68.5076 104.884 68.4812 104.901 68.43" stroke="white" stroke-width="0.5" stroke-linecap="round"/>
<path d="M102.463 70.2524C102.443 70.4718 102.193 70.6086 102.123 70.8114C102.073 70.955 102.325 70.5828 102.411 70.4577C102.456 70.3931 102.66 70.0071 102.739 70.0071C102.819 70.0071 102.597 70.2608 102.585 70.2724C102.462 70.3906 102.228 70.5881 102.072 70.4634C102.018 70.4203 102.026 70.6664 102.026 70.683C102.026 70.7827 102.011 70.87 101.962 70.9582C101.889 71.0894 101.728 71.1943 101.68 71.3304C101.602 71.5475 101.562 71.7828 101.474 71.9978C101.413 72.148 101.365 72.3023 101.333 72.4612C101.306 72.5976 101.253 72.7862 101.296 72.9218C101.396 73.2361 101.587 73.508 101.738 73.7944C101.816 73.9414 101.888 73.9767 102.001 74.0768C102.125 74.1873 102.257 74.0762 102.257 73.9228C102.257 73.49 101.855 73.1882 101.705 72.8063C101.646 72.6541 101.607 72.5207 101.588 72.3571C101.583 72.3087 101.584 72.1227 101.55 72.089C101.5 72.0394 100.993 72.9933 100.975 73.1114C100.957 73.2288 100.999 73.3166 101.038 73.4237C101.09 73.569 101.102 73.7174 101.269 73.7688C101.354 73.795 101.689 74.001 101.616 74.0254" stroke="white" stroke-width="0.5" stroke-linecap="round"/>
<path d="M103.25 67.9674C103.25 68.7844 102.556 69.3352 102.096 69.9105C101.724 70.3753 101.453 70.863 101.232 71.4304C101.007 72.008 100.666 72.6147 100.633 73.2388C100.615 73.5899 100.53 73.9719 100.653 74.3161C100.795 74.7156 100.978 75.1675 101.335 75.4319C101.745 75.7362 102.326 75.8937 102.835 75.8937C103.391 75.8937 103.953 75.3714 104.193 74.8933C104.556 74.1664 104.102 73.4188 103.654 72.8711C103.464 72.6393 103.314 72.3105 103.211 72.0289C103.088 71.6908 103.019 71.4427 103.019 71.0755C103.019 70.6146 103.144 70.368 103.5 70.0666C103.744 69.8602 104.036 69.7422 104.308 69.5813C104.493 69.4715 104.672 69.3777 104.866 69.2842C104.904 69.2659 105.129 69.1602 105.097 69.1602" stroke="white" stroke-width="0.5" stroke-linecap="round"/>
<path d="M102.392 71.7295C102.392 71.5601 102.39 71.8363 102.393 71.8774C102.419 72.2167 102.554 72.5665 102.674 72.8812C102.809 73.2344 102.796 72.6652 102.782 72.563C102.748 72.3165 102.724 72.0691 102.688 71.8236C102.664 71.6643 102.661 71.5143 102.661 71.353C102.661 71.2879 102.556 71.0486 102.52 71.1977C102.469 71.4118 102.423 71.6176 102.386 71.837C102.363 71.9746 102.371 72.1411 102.332 72.2732C102.279 72.4535 102.257 72.6545 102.257 72.8438C102.257 72.9314 102.406 73.0999 102.476 73.1411C102.727 73.2898 102.997 73.3589 103.211 73.5728C103.329 73.6915 103.494 73.8895 103.494 74.0672C103.494 74.0931 103.482 74.3077 103.508 74.3077C103.548 74.3077 103.615 74.2167 103.669 74.2047C103.748 74.1872 103.844 74.2463 103.91 74.2838C104.005 74.3383 103.847 73.9439 103.817 73.8805C103.669 73.5662 103.494 73.302 103.279 73.0261C103.103 72.7989 103.026 72.6023 103.01 72.321C103.005 72.2309 102.861 72.2171 102.795 72.2135C102.773 72.2122 102.744 72.1659 102.741 72.2135C102.737 72.281 102.775 72.3475 102.801 72.4076C103.089 73.0784 103.411 73.703 103.815 74.3092C103.857 74.371 104.054 74.5626 104.031 74.6453C104.009 74.7209 103.879 74.6572 103.844 74.7006C103.824 74.725 103.777 74.7273 103.75 74.7544C103.717 74.787 103.698 74.8277 103.669 74.8634C103.611 74.9343 103.592 75.0255 103.548 75.1024C103.485 75.2134 103.306 75.3655 103.172 75.3847C103.013 75.4074 102.855 75.4938 102.694 75.4938C102.472 75.4938 102.298 75.4711 102.096 75.3802C101.902 75.2927 101.701 75.2333 101.545 75.077C101.411 74.9426 101.263 74.7375 101.263 74.5378C101.263 74.4315 101.21 74.3188 101.161 74.23C101.113 74.144 101.063 74.1257 101 74.0627C100.995 74.0577 100.887 73.9457 100.886 73.9462C100.828 74.0044 100.931 74.3245 100.967 74.3854C101.002 74.4447 101.026 74.5297 101.08 74.5736C101.129 74.6124 101.312 74.578 101.37 74.5796C101.559 74.5847 101.743 74.6913 101.908 74.7738C102.101 74.8705 102.289 74.9843 102.499 75.0427C102.627 75.0781 102.727 75.0905 102.861 75.0905C102.906 75.0905 103.065 74.918 103.104 74.8754C103.175 74.7997 103.701 74.6339 103.508 74.484C103.401 74.4008 103.278 74.3219 103.2 74.2091C103.169 74.1637 102.889 73.7639 102.889 73.764C102.849 73.821 102.829 73.9587 102.824 74.0269C102.812 74.1767 102.789 74.3209 102.77 74.4705C102.764 74.5167 102.765 74.6842 102.728 74.714C102.693 74.7422 102.755 74.7271 102.774 74.7081C102.864 74.618 102.941 74.5148 103.031 74.4242C103.084 74.3715 103.121 74.3103 103.172 74.2569C103.201 74.2258 103.076 74.373 103.058 74.3973C102.957 74.5339 102.695 75.0132 102.499 74.7947C102.424 74.7105 102.363 74.6472 102.252 74.6125C101.909 74.5055 101.545 74.4416 101.221 74.2838C101.024 74.188 100.859 74.109 100.859 73.8805" stroke="white" stroke-width="0.5" stroke-linecap="round"/>
<path d="M220.905 68.41C220.905 68.3826 220.905 68.416 220.903 68.4236C220.892 68.4975 220.829 68.5553 220.783 68.6096C220.69 68.7189 220.576 68.8063 220.488 68.9201C220.373 69.0691 220.236 69.1755 220.095 69.2983C219.948 69.4267 219.734 69.5549 219.618 69.7136C219.542 69.818 219.454 69.9491 219.363 70.0401C218.993 70.4104 218.813 70.9044 218.687 71.4138C218.631 71.6411 218.598 71.8786 218.598 72.1124C218.598 72.2757 218.571 72.4657 218.62 72.6237C218.698 72.8706 218.89 73.0945 219.098 73.2447C219.335 73.4149 219.605 73.5377 219.902 73.533C220.244 73.5275 220.593 73.294 220.873 73.1215C221.386 72.8047 221.76 72.3307 222.091 71.8376C222.25 71.6019 222.371 71.3537 222.484 71.0935C222.597 70.8339 222.766 70.5961 222.923 70.3616C223.749 69.1228 225.172 68.4181 226.626 68.2104" stroke="white" stroke-linecap="round"/>
<path d="M130.433 67.6708C130.917 67.6708 131.4 67.6708 131.884 67.6708C132.716 67.6708 133.432 68.0592 134.189 68.3735C135.286 68.8296 136.334 69.6569 137.53 69.8482C138.416 69.99 139.388 70.0212 140.289 69.9462C141.823 69.8183 143.283 69.2475 144.845 69.2261C145.884 69.2119 147.305 68.8254 148.267 69.3067C148.84 69.5929 149.263 70.3366 149.707 70.7814C149.747 70.8208 150.015 71.2391 150.03 70.9888C150.045 70.7315 150.03 70.4689 150.03 70.2111C150.03 69.5717 150.03 68.9323 150.03 68.2929" stroke="white" stroke-linecap="round"/>
<path d="M136.261 68.9055C137.742 68.9055 139.22 69.3318 140.702 69.0495C140.954 69.0015 141.215 68.9286 141.47 68.9082C141.709 68.889 141.999 68.9026 142.224 68.8122C142.342 68.7654 141.972 68.8096 141.846 68.8096C141.576 68.8096 141.305 68.8179 141.035 68.8069C140.541 68.7867 140.027 68.6694 139.535 68.6069C139.497 68.6022 138.953 68.5581 138.969 68.4843C139 68.3461 139.844 68.4392 139.934 68.4497C140.497 68.5151 141.064 68.5992 141.609 68.7616C141.971 68.8696 142.313 68.9535 142.691 68.9535C143.167 68.9535 143.613 68.8182 144.082 68.8096C144.395 68.8038 144.699 68.8137 145.01 68.7722C145.085 68.7622 145.159 68.7616 145.234 68.7616C145.246 68.7616 144.867 68.7611 144.789 68.7589C144.004 68.7365 143.234 68.5726 142.454 68.4977C142.239 68.477 142.027 68.4737 141.811 68.4737C141.809 68.4737 141.599 68.483 141.646 68.4363C141.745 68.337 142.17 68.2842 142.307 68.2817C142.817 68.2725 143.333 68.264 143.843 68.2844C144.844 68.3244 145.818 68.7136 146.818 68.7136C147.232 68.7136 147.652 68.8338 148.041 68.9535C148.146 68.9858 148.283 69.0211 148.377 69.0735C148.479 69.1301 148.545 69.2331 148.545 69.1454" stroke="white" stroke-linecap="round"/>
<path d="M149.313 69.5293C149.313 69.3134 149.313 69.0975 149.313 68.8815C149.313 68.6122 149.061 68.6002 148.884 68.423C148.625 68.164 148.535 68.0895 148.161 68.1964C147.937 68.2605 147.513 68.409 147.345 68.1858" stroke="white" stroke-linecap="round"/>
<path d="M45.6274 68.1642C45.6662 68.4747 48.3 68.3036 48.6867 68.3036C49.7039 68.3036 49.8724 68.8553 50.5688 69.3879C51.7051 70.2568 52.9451 70.0122 54.1316 69.4189C55.1018 68.9338 56.1009 68.5766 57.129 68.2339C57.3216 68.1697 57.8801 67.8094 58.0894 67.8931C58.2173 67.9442 57.8624 68.0548 57.7331 68.1022C57.2342 68.2852 56.7544 68.4842 56.2228 68.5514C55.5443 68.6372 50.228 69.3747 50.228 68.5824" stroke="white" stroke-width="2" stroke-linecap="round"/>
<path d="M2.92566 69.1383C2.78687 69.468 2.72179 69.8779 2.49197 70.1588C2.36795 70.3104 2.28702 70.5388 2.19279 70.7084C1.86117 71.3054 1.52136 71.8879 1.38571 72.5661C1.13383 73.8255 0.975892 76.6526 2.88392 76.6526C3.56901 76.6526 3.58828 75.8363 3.68637 75.3214C3.8837 74.2854 4.02412 73.2015 3.96003 72.144C3.91331 71.3731 3.6725 70.6276 3.74898 69.8457C3.80341 69.2893 4.06532 68.7758 4.34038 68.2988C4.50963 68.0052 4.68465 67.6637 4.94338 67.436C5.14474 67.2588 5.11595 67.4595 4.9828 67.5729C4.53493 67.9544 3.90114 68.0801 3.44981 68.4797C2.76834 69.0829 2.52109 70.0673 2.40152 70.9334C2.25451 71.9982 2.22985 73.1517 2.34122 74.2221C2.40216 74.8078 2.51892 75.3919 2.60097 75.9754C2.62501 76.1463 2.70987 76.3186 2.50821 76.3186" stroke="white" stroke-width="2" stroke-linecap="round"/>
</svg>
