<svg xmlns="http://www.w3.org/2000/svg" version="1.0" width="760.000000pt" height="760.000000pt" viewBox="0 0 760.000000 760.000000" preserveAspectRatio="xMidYMid meet">

<g transform="translate(0.000000,760.000000) scale(0.100000,-0.100000)" fill="#624ffc" stroke="none">
<path d="M4215 6694 c-592 -508 -1097 -1081 -1542 -1749 -377 -568 -618 -1082 -732 -1565 -55 -234 -66 -331 -66 -615 0 -272 7 -343 51 -558 68 -326 214 -637 415 -883 145 -177 379 -364 569 -453 281 -131 520 -181 870 -181 360 1 603 57 889 206 258 134 520 372 691 628 160 238 254 497 295 810 50 370 -11 718 -186 1076 -85 174 -135 255 -300 485 -143 199 -430 610 -566 813 -120 177 -245 423 -298 586 -77 236 -114 514 -96 722 15 168 45 368 86 568 37 179 39 196 28 196 -5 0 -53 -39 -108 -86z m704 -3060 c80 -86 148 -199 218 -360 80 -186 113 -321 120 -484 11 -274 -46 -417 -197 -489 -48 -22 -68 -26 -155 -26 -203 0 -304 77 -335 256 -11 64 -11 65 49 249 88 272 138 449 162 571 22 116 29 265 16 343 l-9 48 32 -18 c18 -11 62 -51 99 -90z" fill="#624ffc"/>
</g>
</svg>